<mxfile host="app.diagrams.net" agent="Mozilla/5.0 (Windows NT 10.0; Win64; x64) AppleWebKit/537.36 (KHTML, like Gecko) Chrome/139.0.0.0 Safari/537.36" version="28.1.0">
  <diagram id="Cap2Arboles" name="Capítulo 2 — Nombres significativos (árboles)">
    <mxGraphModel dx="1579" dy="636" grid="1" gridSize="10" guides="1" tooltips="1" connect="1" arrows="1" fold="1" page="1" pageScale="1" pageWidth="2000" pageHeight="1200" math="0" shadow="0">
      <root>
        <mxCell id="0" />
        <mxCell id="1" parent="0" />
        <mxCell id="T" value="Capítulo 2 — Nombres significativos" style="rounded=0;whiteSpace=wrap;html=1;fontSize=24;fontStyle=1;align=center;strokeWidth=2;" parent="1" vertex="1">
          <mxGeometry x="610" y="10" width="420" height="60" as="geometry" />
        </mxCell>
        <mxCell id="A" value="Nombres significativos (Capítulo 2)" style="rounded=1;whiteSpace=wrap;html=1;fontSize=14;" parent="1" vertex="1">
          <mxGeometry x="660" y="100" width="320" height="60" as="geometry" />
        </mxCell>
        <mxCell id="fqJzZs0J1zYm1zkEXogz-7" style="edgeStyle=orthogonalEdgeStyle;rounded=0;orthogonalLoop=1;jettySize=auto;html=1;exitX=0.5;exitY=1;exitDx=0;exitDy=0;entryX=0.5;entryY=0;entryDx=0;entryDy=0;elbow=vertical;" edge="1" parent="1" source="Req" target="Req2">
          <mxGeometry relative="1" as="geometry" />
        </mxCell>
        <mxCell id="fqJzZs0J1zYm1zkEXogz-11" style="edgeStyle=orthogonalEdgeStyle;rounded=0;orthogonalLoop=1;jettySize=auto;html=1;exitX=0.5;exitY=1;exitDx=0;exitDy=0;elbow=vertical;" edge="1" parent="1" source="Req">
          <mxGeometry relative="1" as="geometry">
            <mxPoint x="370.2222222222222" y="370" as="targetPoint" />
          </mxGeometry>
        </mxCell>
        <mxCell id="Req" value="Requiere" style="rounded=1;whiteSpace=wrap;html=1;fontSize=14;" parent="1" vertex="1">
          <mxGeometry x="320" y="210" width="100" height="50" as="geometry" />
        </mxCell>
        <mxCell id="Req1" value="Pronunciables" style="rounded=1;whiteSpace=wrap;html=1;fontSize=14;" parent="1" vertex="1">
          <mxGeometry x="250" y="300" width="100" height="60" as="geometry" />
        </mxCell>
        <mxCell id="Req2" value="Buscables" style="rounded=1;whiteSpace=wrap;html=1;fontSize=14;" parent="1" vertex="1">
          <mxGeometry x="390" y="300" width="110" height="60" as="geometry" />
        </mxCell>
        <mxCell id="Evi" value="Evita" style="rounded=1;whiteSpace=wrap;html=1;fontSize=14;" parent="1" vertex="1">
          <mxGeometry x="280" y="380" width="180" height="60" as="geometry" />
        </mxCell>
        <mxCell id="Evi1" value="Desinformación" style="rounded=1;whiteSpace=wrap;html=1;fontSize=14;" parent="1" vertex="1">
          <mxGeometry x="110" y="510" width="180" height="60" as="geometry" />
        </mxCell>
        <mxCell id="Evi2" value="Codificaciones" style="rounded=1;whiteSpace=wrap;html=1;fontSize=14;" parent="1" vertex="1">
          <mxGeometry x="400" y="470" width="180" height="60" as="geometry" />
        </mxCell>
        <mxCell id="Evi3" value="Mapeo mental" style="rounded=1;whiteSpace=wrap;html=1;fontSize=14;" parent="1" vertex="1">
          <mxGeometry x="380" y="660" width="180" height="60" as="geometry" />
        </mxCell>
        <mxCell id="Evi4" value="Contexto gratuito" style="rounded=1;whiteSpace=wrap;html=1;fontSize=14;" parent="1" vertex="1">
          <mxGeometry x="230" y="580" width="200" height="60" as="geometry" />
        </mxCell>
        <mxCell id="Gui" value="Guía" style="rounded=1;whiteSpace=wrap;html=1;fontSize=14;" parent="1" vertex="1">
          <mxGeometry x="1220" y="200" width="90" height="60" as="geometry" />
        </mxCell>
        <mxCell id="Gui1" value="Nombres de clases" style="rounded=1;whiteSpace=wrap;html=1;fontSize=14;" parent="1" vertex="1">
          <mxGeometry x="1050" y="380" width="200" height="60" as="geometry" />
        </mxCell>
        <mxCell id="Gui2" value="Nombres de métodos" style="rounded=1;whiteSpace=wrap;html=1;fontSize=14;" parent="1" vertex="1">
          <mxGeometry x="1300" y="350" width="220" height="60" as="geometry" />
        </mxCell>
        <mxCell id="Deb" value="Deben ser" style="rounded=1;whiteSpace=wrap;html=1;fontSize=14;" parent="1" vertex="1">
          <mxGeometry x="1190" y="450" width="200" height="60" as="geometry" />
        </mxCell>
        <mxCell id="Deb1" value="Sustantivos claros (clases)" style="rounded=1;whiteSpace=wrap;html=1;fontSize=14;" parent="1" vertex="1">
          <mxGeometry x="1090" y="560" width="160" height="60" as="geometry" />
        </mxCell>
        <mxCell id="Deb2" value="Verbos claros (métodos)" style="rounded=1;whiteSpace=wrap;html=1;fontSize=14;" parent="1" vertex="1">
          <mxGeometry x="1300" y="560" width="180" height="60" as="geometry" />
        </mxCell>
        <mxCell id="eA_Req" value="" style="edgeStyle=orthogonalEdgeStyle;rounded=1;endArrow=block;endFill=1;html=1;fontSize=12;" parent="1" source="A" target="Req" edge="1">
          <mxGeometry relative="1" as="geometry" />
        </mxCell>
        <mxCell id="eA_Gui" value="" style="edgeStyle=orthogonalEdgeStyle;rounded=1;endArrow=block;endFill=1;html=1;fontSize=12;" parent="1" source="A" target="Gui" edge="1">
          <mxGeometry relative="1" as="geometry" />
        </mxCell>
        <mxCell id="eReq_Req1" value="" style="edgeStyle=orthogonalEdgeStyle;rounded=1;endArrow=block;endFill=1;html=1;fontSize=12;" parent="1" source="Req" target="Req1" edge="1">
          <mxGeometry relative="1" as="geometry" />
        </mxCell>
        <mxCell id="eEvi_Evi1" value="" style="edgeStyle=orthogonalEdgeStyle;rounded=1;endArrow=block;endFill=1;html=1;fontSize=12;" parent="1" source="Evi" target="Evi1" edge="1">
          <mxGeometry relative="1" as="geometry" />
        </mxCell>
        <mxCell id="eEvi_Evi2" value="" style="edgeStyle=orthogonalEdgeStyle;rounded=1;endArrow=block;endFill=1;html=1;fontSize=12;" parent="1" source="Evi" target="Evi2" edge="1">
          <mxGeometry relative="1" as="geometry" />
        </mxCell>
        <mxCell id="eEvi_Evi3" value="" style="edgeStyle=orthogonalEdgeStyle;rounded=1;endArrow=block;endFill=1;html=1;fontSize=12;" parent="1" source="Evi" target="Evi3" edge="1">
          <mxGeometry relative="1" as="geometry" />
        </mxCell>
        <mxCell id="eEvi_Evi4" value="" style="edgeStyle=orthogonalEdgeStyle;rounded=1;endArrow=block;endFill=1;html=1;fontSize=12;" parent="1" source="Evi" target="Evi4" edge="1">
          <mxGeometry relative="1" as="geometry" />
        </mxCell>
        <mxCell id="eGui_Gui1" value="" style="edgeStyle=orthogonalEdgeStyle;rounded=1;endArrow=block;endFill=1;html=1;fontSize=12;" parent="1" source="Gui" target="Gui1" edge="1">
          <mxGeometry relative="1" as="geometry" />
        </mxCell>
        <mxCell id="eGui_Gui2" value="" style="edgeStyle=orthogonalEdgeStyle;rounded=1;endArrow=block;endFill=1;html=1;fontSize=12;" parent="1" source="Gui" target="Gui2" edge="1">
          <mxGeometry relative="1" as="geometry" />
        </mxCell>
        <mxCell id="eDeb_Deb1" value="" style="edgeStyle=orthogonalEdgeStyle;rounded=1;endArrow=block;endFill=1;html=1;fontSize=12;" parent="1" source="Deb" target="Deb1" edge="1">
          <mxGeometry relative="1" as="geometry" />
        </mxCell>
        <mxCell id="eDeb_Deb2" value="" style="edgeStyle=orthogonalEdgeStyle;rounded=1;endArrow=block;endFill=1;html=1;fontSize=12;" parent="1" source="Deb" target="Deb2" edge="1">
          <mxGeometry relative="1" as="geometry" />
        </mxCell>
        <mxCell id="fqJzZs0J1zYm1zkEXogz-16" style="edgeStyle=orthogonalEdgeStyle;rounded=0;orthogonalLoop=1;jettySize=auto;html=1;exitX=0.5;exitY=1;exitDx=0;exitDy=0;entryX=0.5;entryY=0;entryDx=0;entryDy=0;" edge="1" parent="1" source="Logra" target="Cons">
          <mxGeometry relative="1" as="geometry" />
        </mxCell>
        <mxCell id="Logra" value="Se logra con → Revelar intención" style="rounded=1;whiteSpace=wrap;html=1;fontSize=14;" parent="1" vertex="1">
          <mxGeometry x="580" y="210" width="210" height="60" as="geometry" />
        </mxCell>
        <mxCell id="fqJzZs0J1zYm1zkEXogz-20" style="edgeStyle=orthogonalEdgeStyle;rounded=0;orthogonalLoop=1;jettySize=auto;html=1;exitX=0.5;exitY=1;exitDx=0;exitDy=0;entryX=0.5;entryY=0;entryDx=0;entryDy=0;" edge="1" parent="1" source="Exige" target="Long">
          <mxGeometry relative="1" as="geometry" />
        </mxCell>
        <mxCell id="Exige" value="Exige → Diferenciación con sentido" style="rounded=1;whiteSpace=wrap;html=1;fontSize=14;" parent="1" vertex="1">
          <mxGeometry x="840" y="210" width="220" height="60" as="geometry" />
        </mxCell>
        <mxCell id="fqJzZs0J1zYm1zkEXogz-21" style="edgeStyle=orthogonalEdgeStyle;rounded=0;orthogonalLoop=1;jettySize=auto;html=1;exitX=0.5;exitY=1;exitDx=0;exitDy=0;entryX=0.5;entryY=0;entryDx=0;entryDy=0;" edge="1" parent="1" source="Una" target="Dom">
          <mxGeometry relative="1" as="geometry" />
        </mxCell>
        <mxCell id="Una" value="Implica → Una palabra por concepto" style="rounded=1;whiteSpace=wrap;html=1;fontSize=14;" parent="1" vertex="1">
          <mxGeometry x="845" y="410" width="200" height="60" as="geometry" />
        </mxCell>
        <mxCell id="fqJzZs0J1zYm1zkEXogz-18" style="edgeStyle=orthogonalEdgeStyle;rounded=0;orthogonalLoop=1;jettySize=auto;html=1;exitX=0.5;exitY=1;exitDx=0;exitDy=0;entryX=0.5;entryY=0;entryDx=0;entryDy=0;" edge="1" parent="1" source="Ctx" target="Ing">
          <mxGeometry relative="1" as="geometry" />
        </mxCell>
        <mxCell id="Ctx" value="Aplica → Agregar contexto útil" style="rounded=1;whiteSpace=wrap;html=1;fontSize=14;" parent="1" vertex="1">
          <mxGeometry x="590" y="410" width="190" height="60" as="geometry" />
        </mxCell>
        <mxCell id="Ing" value="Recomienda → No ser ingenioso" style="rounded=1;whiteSpace=wrap;html=1;fontSize=14;" parent="1" vertex="1">
          <mxGeometry x="595" y="510" width="190" height="60" as="geometry" />
        </mxCell>
        <mxCell id="Dom" value="Usa → Vocabulario del dominio" style="rounded=1;whiteSpace=wrap;html=1;fontSize=14;" parent="1" vertex="1">
          <mxGeometry x="850" y="500" width="190" height="60" as="geometry" />
        </mxCell>
        <mxCell id="eA_Logra" value="" style="edgeStyle=orthogonalEdgeStyle;rounded=1;endArrow=block;endFill=1;html=1;fontSize=12;" parent="1" source="A" target="Logra" edge="1">
          <mxGeometry relative="1" as="geometry" />
        </mxCell>
        <mxCell id="eA_Exige" value="" style="edgeStyle=orthogonalEdgeStyle;rounded=1;endArrow=block;endFill=1;html=1;fontSize=12;" parent="1" source="A" target="Exige" edge="1">
          <mxGeometry x="-0.0526" relative="1" as="geometry">
            <mxPoint as="offset" />
          </mxGeometry>
        </mxCell>
        <mxCell id="fqJzZs0J1zYm1zkEXogz-1" style="edgeStyle=orthogonalEdgeStyle;rounded=0;orthogonalLoop=1;jettySize=auto;html=1;exitX=0.5;exitY=1;exitDx=0;exitDy=0;entryX=0.453;entryY=-0.095;entryDx=0;entryDy=0;entryPerimeter=0;elbow=vertical;" edge="1" parent="1" source="Gui" target="Deb">
          <mxGeometry relative="1" as="geometry" />
        </mxCell>
        <mxCell id="fqJzZs0J1zYm1zkEXogz-6" style="edgeStyle=orthogonalEdgeStyle;rounded=0;orthogonalLoop=1;jettySize=auto;html=1;exitX=0.5;exitY=1;exitDx=0;exitDy=0;elbow=vertical;" edge="1" parent="1" source="Cons">
          <mxGeometry relative="1" as="geometry">
            <mxPoint x="690" y="360" as="targetPoint" />
          </mxGeometry>
        </mxCell>
        <mxCell id="fqJzZs0J1zYm1zkEXogz-17" style="edgeStyle=orthogonalEdgeStyle;rounded=0;orthogonalLoop=1;jettySize=auto;html=1;exitX=0.5;exitY=1;exitDx=0;exitDy=0;entryX=0.5;entryY=0;entryDx=0;entryDy=0;" edge="1" parent="1" source="Cons" target="Ctx">
          <mxGeometry relative="1" as="geometry" />
        </mxCell>
        <mxCell id="Cons" value="Promueve → Consistencia léxica" style="rounded=1;whiteSpace=wrap;html=1;fontSize=14;" parent="1" vertex="1">
          <mxGeometry x="595" y="320" width="180" height="60" as="geometry" />
        </mxCell>
        <mxCell id="fqJzZs0J1zYm1zkEXogz-19" style="edgeStyle=orthogonalEdgeStyle;rounded=0;orthogonalLoop=1;jettySize=auto;html=1;exitX=0.5;exitY=1;exitDx=0;exitDy=0;entryX=0.5;entryY=0;entryDx=0;entryDy=0;" edge="1" parent="1" source="Long" target="Una">
          <mxGeometry relative="1" as="geometry" />
        </mxCell>
        <mxCell id="Long" value="Ajusta a → Longitud según alcance" style="rounded=1;whiteSpace=wrap;html=1;fontSize=14;" parent="1" vertex="1">
          <mxGeometry x="840" y="300" width="220" height="60" as="geometry" />
        </mxCell>
      </root>
    </mxGraphModel>
  </diagram>
</mxfile>
